<?xml version="1.0" encoding="iso-8859-1"?>
<!-- Generator: Adobe Illustrator 19.0.0, SVG Export Plug-In . SVG Version: 6.00 Build 0)  -->
<svg version="1.1" id="Capa_1" xmlns="http://www.w3.org/2000/svg" xmlns:xlink="http://www.w3.org/1999/xlink" x="0px" y="0px"
	 viewBox="0 0 512 512" style="enable-background:new 0 0 512 512;" xml:space="preserve">
<path style="fill:#E5F9F6;" d="M422.353,504.499h-82.048c-8.502,0-15.395-6.893-15.395-15.395V357.216
	c0-2.435,1.974-4.408,4.408-4.408h104.021c2.435,0,4.408,1.974,4.408,4.408v131.888
	C437.748,497.606,430.855,504.499,422.353,504.499z"/>
<path style="fill:#D6E5E2;" d="M433.339,352.808H382.36v151.691h39.993c8.502,0,15.395-6.892,15.395-15.395V357.216
	C437.748,354.781,435.774,352.808,433.339,352.808z"/>
<g>
	<path style="fill:#FD9727;" d="M324.909,399.787v89.316c0,8.502,6.893,15.395,15.395,15.395h82.048
		c8.502,0,15.395-6.892,15.395-15.395v-89.316H324.909z"/>
	<path style="fill:#FD9727;" d="M194.814,158.208c0,0,5.661-5.704,5.661-32.142c0-38.372-14.173-66.034-14.173-66.034h-48.829
		c0,0-14.173,27.662-14.173,66.034c0,26.438,5.661,32.142,5.661,32.142l-43.58,34.698c-7.031,5.598-11.126,14.095-11.126,23.082
		V487.03c0,9.648,7.821,17.469,17.469,17.469h140.327c9.648,0,17.469-7.821,17.469-17.469V215.987
		c0-8.987-4.096-17.484-11.126-23.082L194.814,158.208z"/>
</g>
<path style="fill:#E57F23;" d="M238.392,192.906l-43.579-34.698c0,0,5.661-5.704,5.661-32.142c0-38.371-14.173-66.034-14.173-66.034
	h-41.78c0,37.53-0.001,81.434-0.001,81.583c-0.097,22.57,10.141,29.172,27.798,43.231l10.122,8.059
	c7.031,5.598,11.126,14.095,11.126,23.081v288.511h38.484c9.648,0,17.469-7.821,17.469-17.469V215.987
	C249.519,207,245.423,198.504,238.392,192.906z"/>
<rect x="74.251" y="233.53" style="fill:#4A4256;" width="175.26" height="234.29"/>
<rect x="193.561" y="233.53" style="fill:#352F3F;" width="55.953" height="234.29"/>
<g>
	<path style="fill:#EFEFEF;" d="M201.553,299.001c-26.755-11.936-52.514-11.964-79.333,0.001c-3.168,1.413-6.895,0.194-8.664-2.79
		c-2.22-3.745-4.44-7.49-6.66-11.236c-2.082-3.511-0.656-8.048,3.048-9.762c34.503-15.968,69.367-15.975,103.885,0
		c3.705,1.715,5.13,6.251,3.048,9.762c-2.22,3.745-4.44,7.49-6.66,11.235C208.448,299.196,204.721,300.415,201.553,299.001z"/>
	<ellipse style="fill:#EFEFEF;" cx="161.891" cy="357.18" rx="43.699" ry="29.958"/>
</g>
<path style="fill:#4A4256;" d="M200.444,123.406c-0.63-36.98-14.143-63.374-14.143-63.374h-48.829c0,0-13.512,26.394-14.143,63.374
	H200.444z"/>
<path style="fill:#352F3F;" d="M200.444,123.406c-0.591-34.665-12.501-60.027-13.99-63.067c-0.021-0.042-0.032-0.065-0.049-0.099
	c-0.022-0.045-0.049-0.1-0.064-0.129c-0.026-0.051-0.04-0.079-0.04-0.079h-41.78c0,22.41,0,47.091-0.001,63.373L200.444,123.406
	L200.444,123.406z"/>
<path style="fill:#4A4256;" d="M191.285,68.365h-58.796c-2.601,0-4.709-2.108-4.709-4.709V12.21c0-2.601,2.108-4.709,4.709-4.709
	h58.796c2.601,0,4.709,2.108,4.709,4.709v51.445C195.994,66.256,193.885,68.365,191.285,68.365z"/>
<path style="fill:#E57F23;" d="M437.748,489.104v-89.316H382.36v104.711h39.993C430.855,504.499,437.748,497.606,437.748,489.104z"
	/>
<path style="fill:#D7E0DC;" d="M422.353,480.025h-82.049c-8.502,0-15.395,0.202-15.395-8.3v17.379
	c0,8.502,6.893,15.395,15.395,15.395h82.049c8.502,0,15.395-6.892,15.395-15.395v-17.379
	C437.748,480.227,430.855,480.025,422.353,480.025z"/>
<path style="fill:#C9D1CD;" d="M422.353,480.025H382.36v24.474h39.993c5.087,0,9.583-2.478,12.387-6.28
	c0.418-0.567,0.812-1.154,1.15-1.776c0.237-0.436,0.453-0.885,0.648-1.346c0.235-0.555,0.426-1.131,0.595-1.716
	c0.234-0.809,0.406-1.642,0.504-2.5c0.067-0.584,0.11-1.175,0.11-1.776v-17.379C437.748,480.227,430.855,480.025,422.353,480.025z"
	/>
<g>
	<path style="fill:#DEE0E2;" d="M213.829,275.214c-6.743-3.121-13.499-5.623-20.263-7.524v28.097
		c2.654,0.954,5.315,2.022,7.986,3.214c3.168,1.414,6.896,0.195,8.665-2.789c2.22-3.745,4.44-7.49,6.66-11.235
		C218.959,281.465,217.534,276.928,213.829,275.214z"/>
	<path style="fill:#DEE0E2;" d="M193.566,336.561v41.245c7.443-5.372,12.019-12.629,12.019-20.623S201.009,341.933,193.566,336.561z
		"/>
</g>
<path d="M207.215,416.64h-90.657c-4.143,0-7.501,3.359-7.501,7.501c0,4.143,3.359,7.501,7.501,7.501h90.657
	c4.143,0,7.501-3.359,7.501-7.501C214.717,419.999,211.358,416.64,207.215,416.64z"/>
<path d="M243.065,187.037L243.065,187.037l-38.838-30.923c1.968-5.596,3.748-14.857,3.748-30.049c0-22.304-4.633-41.216-8.589-53.3
	c2.514-2.238,4.109-5.488,4.109-9.11V12.21c0-6.733-5.478-12.21-12.211-12.21h-58.796c-6.733,0-12.21,5.478-12.21,12.21v51.445
	c0,3.623,1.595,6.872,4.108,9.11c-3.956,12.084-8.589,30.996-8.589,53.3c0,15.192,1.781,24.453,3.749,30.049l-38.838,30.923
	c-8.869,7.061-13.956,17.613-13.956,28.95V487.03l0,0c0,13.769,11.202,24.97,24.971,24.97h140.326
	c13.769,0,24.97-11.201,24.97-24.97l0,0V215.987C257.02,204.65,251.934,194.098,243.065,187.037z M135.281,15.003h53.211v11.482
	h-53.211V15.003z M135.281,42.515h53.211v18.348h-53.211V42.515z M139.165,75.866h45.442c3.102,9.114,6.859,23.175,8.007,40.038
	h-61.456C132.306,99.041,136.064,84.98,139.165,75.866z M242.017,487.03c0,5.496-4.471,9.967-9.967,9.967H91.724
	c-5.496,0-9.968-4.471-9.968-9.967v-11.702h160.262L242.017,487.03L242.017,487.03z M242.017,226.032H140.781
	c-4.143,0-7.501,3.359-7.501,7.501s3.359,7.501,7.501,7.501h101.236v219.29H81.756v-219.29h24.122c4.143,0,7.501-3.359,7.501-7.501
	s-3.359-7.501-7.501-7.501H81.756v-10.045c0-6.741,3.025-13.015,8.298-17.213l43.578-34.698c1.849-1.471,3.399-3.303,3.329-5.665
	c-0.066-2.244-0.679-3.95-2.396-5.281c-0.711-1.346-3.236-7.149-3.692-22.223h62.028c-0.456,15.075-2.981,20.877-3.692,22.224
	c-1.718,1.331-2.331,3.037-2.396,5.281c-0.07,2.362,1.48,4.193,3.329,5.665l43.578,34.698l0,0
	c5.273,4.199,8.297,10.472,8.297,17.213L242.017,226.032L242.017,226.032z"/>
<path d="M99.081,277.21c-1.204,3.876-0.708,8.101,1.361,11.591l6.661,11.237c2.667,4.497,7.433,7.056,12.363,7.055
	c1.951,0,3.928-0.4,5.81-1.24c24.978-11.144,48.245-11.143,73.22,0l0,0c6.64,2.961,14.453,0.462,18.173-5.815l6.661-11.236
	c2.068-3.49,2.564-7.715,1.36-11.591c-1.206-3.885-4.017-7.094-7.711-8.804c-36.557-16.918-73.629-16.919-110.187,0
	C103.099,270.116,100.288,273.325,99.081,277.21z M204.604,292.149c0.001,0,0.003,0.001,0.004,0.001l0,0
	C204.607,292.15,204.606,292.149,204.604,292.149z M210.074,281.743l-6.023,10.16c-28.365-12.496-55.962-12.496-84.328,0
	l-6.023-10.16C145.678,267.131,178.096,267.13,210.074,281.743z"/>
<path d="M161.887,394.642c28.711,0,51.2-16.454,51.2-37.459s-22.49-37.459-51.2-37.459s-51.2,16.454-51.2,37.459
	S133.176,394.642,161.887,394.642z M161.887,334.727c19.621,0,36.197,10.284,36.197,22.457c0,12.172-16.576,22.456-36.197,22.456
	s-36.197-10.284-36.197-22.456C125.689,345.011,142.266,334.727,161.887,334.727z"/>
<path d="M433.34,345.306H329.317c-6.567,0-11.91,5.343-11.91,11.91v131.887l0,0c0,12.625,10.272,22.897,22.896,22.897h82.049
	c12.625,0,22.896-10.272,22.896-22.897l0,0V357.216C445.249,350.649,439.906,345.306,433.34,345.306z M430.246,489.103
	c0,4.352-3.541,7.894-7.893,7.894h-82.049c-4.352,0-7.893-3.541-7.893-7.894v-1.807c2.341,0.232,4.806,0.237,7.318,0.229h83.2
	c2.514,0.008,4.976,0.003,7.318-0.229L430.246,489.103L430.246,489.103z M430.246,392.286h-51.751c-4.143,0-7.501,3.359-7.501,7.501
	s3.358,7.501,7.501,7.501h51.751v64.436c0,0.167-0.005,0.31-0.013,0.431c-1.553,0.371-4.95,0.377-7.297,0.368h-83.215
	c-2.334,0.011-5.743,0.003-7.297-0.368c-0.008-0.121-0.013-0.264-0.013-0.431v-64.436h11.181c4.143,0,7.501-3.359,7.501-7.501
	s-3.358-7.501-7.501-7.501h-11.181v-31.977h97.835V392.286z"/>
<g>
</g>
<g>
</g>
<g>
</g>
<g>
</g>
<g>
</g>
<g>
</g>
<g>
</g>
<g>
</g>
<g>
</g>
<g>
</g>
<g>
</g>
<g>
</g>
<g>
</g>
<g>
</g>
<g>
</g>
</svg>
