<?xml version="1.0" encoding="iso-8859-1"?>
<!-- Generator: Adobe Illustrator 19.0.0, SVG Export Plug-In . SVG Version: 6.00 Build 0)  -->
<svg version="1.1" id="Capa_1" xmlns="http://www.w3.org/2000/svg" xmlns:xlink="http://www.w3.org/1999/xlink" x="0px" y="0px"
	 viewBox="0 0 512.002 512.002" style="enable-background:new 0 0 512.002 512.002;" xml:space="preserve">
<g>
	<g>
		<path d="M348.396,272.978l-4.841-26.53c-1.544-6.046-7.921-11.579-14.16-12.302c0,0-15.915-1.841-22.65-14.263
			c-6.741-12.439,0.49-26.616,0.49-26.616c2.832-5.573,1.846-14.023-2.205-18.792c0,0-3.328-3.932-9.47-9.749
			c-6.12-5.818-10.229-8.941-10.229-8.941c-2.837-2.171-6.855-3.299-10.787-3.299c-2.969,0-5.886,0.638-8.234,1.948
			c0,0-7.197,4.017-15.995,4.017c-3.459,0-7.162-0.615-10.775-2.342c-12.821-6.126-15.367-21.818-15.367-21.818
			c-1.002-6.154-6.855-12.228-13.008-13.499l-26.924-3.612l-0.798-0.023c-6.08,0-12.872,4.188-15.385,9.618
			c0,0-6.69,14.405-20.667,16.929c-1.413,0.256-2.803,0.371-4.154,0.371c-12.023,0-21.209-9.072-21.209-9.072
			c-2.981-2.952-7.721-4.61-12.246-4.61c-2.222,0-4.393,0.399-6.279,1.237l-23.921,12.826c-5.311,3.334-8.644,11.066-7.402,17.186
			c0,0,3.145,15.556-6.684,25.756c-6.65,6.895-16.04,8.012-21.42,8.012c-2.57,0-4.211-0.251-4.211-0.251
			c-0.661-0.102-1.344-0.148-2.034-0.148c-5.76,0-12.148,3.43-14.929,8.25l-11.852,24.279c-2.313,5.8-0.422,14.001,4.205,18.223
			c0,0,11.795,10.764,9.88,24.752c-1.915,13.966-16.12,21.225-16.12,21.225c-5.589,2.855-9.618,10.262-8.941,16.462l4.832,26.542
			c1.555,6.046,7.926,11.573,14.165,12.291c0,0,15.915,1.835,22.639,14.263c6.735,12.428-0.478,26.598-0.478,26.598
			c-2.837,5.567-1.846,14.029,2.205,18.799c0,0,3.328,3.926,9.459,9.756c6.126,5.813,10.234,8.934,10.234,8.934
			c2.843,2.171,6.861,3.294,10.804,3.294c2.957,0,5.875-0.638,8.223-1.943c0,0,7.186-4.012,15.983-4.012
			c3.454,0,7.168,0.622,10.787,2.348c12.81,6.114,15.362,21.807,15.362,21.807c1.009,6.154,6.861,12.228,13.015,13.499l26.924,3.612
			l0.798,0.023c6.08,0,12.872-4.188,15.385-9.618c0,0,6.678-14.399,20.656-16.906c1.413-0.256,2.803-0.371,4.154-0.371
			c12.017,0,21.209,9.06,21.209,9.06c2.986,2.946,7.715,4.598,12.24,4.598c2.228,0,4.393-0.393,6.291-1.237l23.91-12.821
			c5.316-3.334,8.656-11.06,7.413-17.18c0,0-3.152-15.562,6.678-25.756c6.655-6.9,16.051-8.017,21.431-8.017
			c2.564,0,4.211,0.256,4.211,0.256c0.667,0.102,1.344,0.148,2.034,0.148c5.76,0,12.148-3.43,14.934-8.25l11.846-24.274
			c2.308-5.806,0.416-14.001-4.205-18.223c0,0-11.795-10.764-9.887-24.759c1.92-13.966,16.131-21.231,16.131-21.231
			C345.045,286.585,349.074,279.178,348.396,272.978z M331.049,274.603c-3.932,2.131-21.858,12.917-24.719,33.779
			c-2.849,20.872,11.562,36.012,14.803,39.117l0.08,0.313l-10.342,21.197l-0.211,0.125c-1.095-0.142-3.334-0.376-6.279-0.376
			c-13.561,0-25.567,4.712-33.807,13.265c-14.656,15.185-12.006,35.796-11.225,40.234l-0.12,0.291l-20.878,11.191l-0.313-0.069
			c-2.821-2.639-15.533-13.561-32.833-13.561c-2.416,0-4.855,0.216-7.208,0.638c-20.861,3.743-30.929,21.978-32.895,25.978
			l-0.296,0.182l-23.517-3.157l-0.2-0.222c-0.832-4.416-5.642-24.656-24.741-33.784c-5.596-2.672-11.733-4.029-18.217-4.029
			c-11.841,0-21.26,4.525-23.926,5.944l-0.28,0.006l-0.74-0.074c-1.082-0.86-4.211-3.425-8.439-7.436
			c-4.262-4.052-6.992-7.055-7.881-8.052l-0.114-0.997c1.824-3.789,10.189-23.163,0.057-41.865
			c-10.034-18.536-30.634-22.4-35.117-23.02l-0.222-0.182l-4.216-23.186l0.165-0.285c3.926-2.131,21.847-12.923,24.707-33.773
			c2.855-20.872-11.556-36.012-14.803-39.117l-0.08-0.307l10.347-21.209l0.211-0.125c1.1,0.142,3.328,0.376,6.279,0.376
			c13.556,0,25.562-4.712,33.813-13.271c14.645-15.191,11.995-35.796,11.214-40.228l0.12-0.296l20.872-11.191l0.302,0.069
			c2.821,2.639,15.538,13.579,32.844,13.579c2.422,0,4.86-0.216,7.226-0.638c20.849-3.761,30.923-21.995,32.895-25.989l0.296-0.188
			l23.517,3.157l0.188,0.211c0.838,4.422,5.629,24.673,24.741,33.807c5.596,2.672,11.733,4.029,18.217,4.029
			c11.841,0,21.265-4.53,23.937-5.96l0.291-0.011l0.724,0.08c1.071,0.849,4.2,3.419,8.45,7.453c4.256,4.045,6.986,7.037,7.875,8.041
			l0.114,0.997c-1.835,3.801-10.205,23.163-0.069,41.876c10.04,18.519,30.627,22.4,35.129,23.026l0.216,0.182l4.228,23.175
			L331.049,274.603z"/>
	</g>
</g>
<g>
	<g>
		<path d="M230.568,232.158c-15.789-14.998-36.076-22.433-56.315-22.433c-21.471,0-42.902,8.359-58.907,24.969
			c-31.118,32.263-29.966,83.455,2.559,114.322c15.784,14.987,36.058,22.433,56.315,22.433c21.471,0,42.902-8.37,58.907-24.969
			C264.244,314.211,263.087,263.025,230.568,232.158z M220.739,334.718c-12.257,12.706-28.775,19.71-46.519,19.71
			c-16.644,0-32.428-6.291-44.474-17.704c-12.422-11.784-19.47-27.67-19.847-44.724c-0.382-17.055,5.949-33.231,17.835-45.557
			c12.251-12.706,28.781-19.716,46.519-19.716c16.638,0,32.428,6.291,44.468,17.71c12.422,11.784,19.47,27.664,19.852,44.724
			C238.956,306.21,232.625,322.394,220.739,334.718z"/>
	</g>
</g>
<g>
	<g>
		<path d="M507.491,147.837c0,0-12.405-7.379-14.952-17.602c-2.564-10.229,4.918-22.502,4.918-22.502
			c1.624-2.667,1.595-7.008-0.069-9.658L485.4,81.995c-1.658-1.909-4.701-3.134-7.424-3.134c-0.644,0-1.271,0.074-1.852,0.216
			c0,0-4.422,1.1-9.903,1.1c-4.285,0-9.219-0.678-13.203-3.06c-9.117-5.442-12.553-19.357-12.553-19.357
			c-0.753-3.037-3.874-6.075-6.935-6.769l-19.954-2.986l-0.478-0.017c-3.037,0-6.621,1.932-8.154,4.467
			c0,0-7.43,12.291-17.733,14.838c-1.515,0.365-3.065,0.53-4.621,0.53c-9.049,0-18.063-5.407-18.063-5.407
			c-1.322-0.792-3.059-1.191-4.798-1.191c-1.789,0-3.585,0.422-4.929,1.259l-16.229,11.909c-2.382,2.028-3.698,6.177-2.941,9.197
			c0,0,3.516,13.892-1.966,22.918c-5.493,9.026-19.51,12.462-19.51,12.462c-3.054,0.746-6.114,3.841-6.815,6.884l-3.008,19.79
			c-0.222,3.105,1.795,6.969,4.49,8.57c0,0,12.388,7.373,14.934,17.595c2.57,10.222-4.918,22.484-4.918,22.484
			c-1.624,2.672-1.59,7.015,0.074,9.652l11.995,16.091c1.653,1.909,4.701,3.134,7.419,3.134c0.644,0,1.271-0.069,1.846-0.211
			c0,0,4.416-1.095,9.903-1.095c4.285,0,9.225,0.667,13.208,3.048c9.1,5.442,12.553,19.368,12.553,19.368
			c0.753,3.026,3.874,6.069,6.94,6.764l19.938,2.981l0.478,0.017c3.037,0,6.621-1.937,8.171-4.478c0,0,7.43-12.268,17.726-14.816
			c1.515-0.371,3.06-0.536,4.616-0.536c9.054,0,18.063,5.419,18.063,5.419c1.317,0.792,3.054,1.186,4.792,1.186
			c1.789,0,3.59-0.416,4.94-1.265l16.217-11.88c2.382-2.04,3.703-6.177,2.946-9.196c0,0-3.499-13.921,1.966-22.952
			c5.487-9.032,19.534-12.457,19.534-12.457c3.043-0.746,6.109-3.841,6.809-6.877l3.014-19.79
			C512.21,153.302,510.186,149.45,507.491,147.837z M492.864,168.145c-6.952,2.479-18.45,7.966-24.923,18.628
			c-6.444,10.638-5.955,23.299-4.918,30.536l-7.174,5.26c-5.037-2.353-13.225-5.351-22.137-5.351c-3.032,0-5.983,0.353-8.747,1.037
			c-12.16,2.997-20.838,12.297-25.26,18.132l-8.815-1.317c-2.496-6.889-8.041-18.297-18.764-24.724
			c-6.091-3.636-13.51-5.476-22.046-5.476c-3.316,0-6.325,0.279-8.707,0.609l-5.327-7.128c3.157-6.627,7.379-18.588,4.354-30.621
			c-3.003-12.068-12.377-20.684-18.274-25.072l1.328-8.752c6.94-2.484,18.428-7.966,24.901-18.61
			c6.456-10.638,5.971-23.288,4.929-30.53l7.168-5.271c5.043,2.348,13.225,5.351,22.137,5.351c3.026,0,5.971-0.353,8.758-1.042
			c12.142-2.997,20.809-12.286,25.254-18.143l8.803,1.317c2.496,6.895,8.028,18.297,18.747,24.701
			c6.102,3.658,13.528,5.511,22.069,5.511c3.323,0,6.331-0.291,8.718-0.615l5.316,7.117c-3.145,6.627-7.373,18.593-4.359,30.639
			c3.008,12.069,12.399,20.69,18.297,25.083L492.864,168.145z"/>
	</g>
</g>
<g>
	<g>
		<path d="M429.097,116.514c-6.542-3.909-13.761-5.767-20.889-5.767c-13.761,0-27.186,6.946-34.821,19.505
			c-11.544,19.043-5.356,43.784,13.846,55.255c6.542,3.92,13.761,5.784,20.889,5.784c13.755,0,27.186-6.952,34.81-19.505
			C454.482,152.755,448.294,128.008,429.097,116.514z M428.253,163.011c-4.296,7.06-11.818,11.277-20.132,11.277
			c-4.228,0-8.394-1.157-12.051-3.339c-11.06-6.621-14.656-20.947-7.995-31.927c4.291-7.048,11.813-11.271,20.137-11.271
			c4.228,0,8.405,1.151,12.029,3.323C431.319,137.711,434.908,152.036,428.253,163.011z"/>
	</g>
</g>
<g>
</g>
<g>
</g>
<g>
</g>
<g>
</g>
<g>
</g>
<g>
</g>
<g>
</g>
<g>
</g>
<g>
</g>
<g>
</g>
<g>
</g>
<g>
</g>
<g>
</g>
<g>
</g>
<g>
</g>
</svg>
